# xmcd
# 
# Track frame offsets:
#     150
#     19266
#     42208
#     58614
#     73994
#     86159
#     104191
#     118556
#     131971
#     150275
#     162170
#     179317
#     195042
#     208339
#     233402
# 
# Disc length: 3523
# 
# Revision: 2
# Processed by: cddbd v1.5.2PL0 Copyright (c) Steve Scherf et al.
# Submitted via: BonkEnc v1.0
# 
DISCID=ce0dc10f
DTITLE=DJ ГРУВ - Последние киноремиксы
DYEAR=2007
DGENRE=Dance
TTITLE0=Вокзал прощания
TTITLE1=Камыш 2007
TTITLE2=Прелюдия из к/ф "9 рота" (Total Electrohouse Mix)
TTITLE3=Вальс из к/ф "Мой ласковый и нежный зверь"
TTITLE4=Из к/ф "Добро пожаловать или посторонним вход воспрещен"
TTITLE5=Rock On The Ice
TTITLE6=Man Of Mystery  из к/ф "Начало"
TTITLE7=Dj Грув - Ералаш 2007
TTITLE8=El Bimbo (Dj Groove Version)
TTITLE9=Погода из к/ф "Служебный роман"
TTITLE10=Юность в Сапогах из сериала "Солдаты"
TTITLE11=Вокзал прощания (Радио Mix) из к/ф "17 мгновений весны"
TTITLE12=Вальс (Radio Mix) из к/ф "Мой ласковый и нежный зверь"
TTITLE13=Прелюдия из к/ф "9 рота" (Радио Mix)
TTITLE14=Data track
EXTD=
EXTT0=
EXTT1=
EXTT2=
EXTT3=
EXTT4=
EXTT5=
EXTT6=
EXTT7=
EXTT8=
EXTT9=
EXTT10=
EXTT11=
EXTT12=
EXTT13=
EXTT14=
PLAYORDER=
